<svg width="8" height="10" viewBox="0 0 8 10" fill="none" xmlns="http://www.w3.org/2000/svg">
<path d="M0.9065 0.582479C1.02918 0.519309 1.1669 0.491206 1.30452 0.501262C1.44214 0.511319 1.57431 0.559146 1.6865 0.639479L6.9365 4.38948C7.03372 4.45886 7.11297 4.55045 7.16765 4.65664C7.22233 4.76283 7.25085 4.88054 7.25085 4.99998C7.25085 5.11942 7.22233 5.23713 7.16765 5.34332C7.11297 5.44951 7.03372 5.5411 6.9365 5.61048L1.6865 9.36048C1.57435 9.44074 1.44224 9.48853 1.30469 9.49859C1.16715 9.50865 1.02949 9.48058 0.906856 9.41748C0.784223 9.35439 0.681363 9.25869 0.609585 9.14093C0.537806 9.02317 0.499889 8.88789 0.5 8.74998V1.24998C0.499856 1.1121 0.537721 0.976855 0.609435 0.859096C0.681148 0.741338 0.783935 0.645626 0.9065 0.582479Z" fill="white"/>
</svg>
