<svg width="25" height="24" viewBox="0 0 25 24" fill="none" xmlns="http://www.w3.org/2000/svg">
<path d="M12.5 22.5C9.71523 22.5 7.04451 21.3938 5.07538 19.4246C3.10625 17.4555 2 14.7848 2 12C2 9.21523 3.10625 6.54451 5.07538 4.57538C7.04451 2.60625 9.71523 1.5 12.5 1.5C15.2848 1.5 17.9555 2.60625 19.9246 4.57538C21.8938 6.54451 23 9.21523 23 12C23 14.7848 21.8938 17.4555 19.9246 19.4246C17.9555 21.3938 15.2848 22.5 12.5 22.5ZM12.5 24C15.6826 24 18.7348 22.7357 20.9853 20.4853C23.2357 18.2348 24.5 15.1826 24.5 12C24.5 8.8174 23.2357 5.76516 20.9853 3.51472C18.7348 1.26428 15.6826 0 12.5 0C9.3174 0 6.26516 1.26428 4.01472 3.51472C1.76428 5.76516 0.5 8.8174 0.5 12C0.5 15.1826 1.76428 18.2348 4.01472 20.4853C6.26516 22.7357 9.3174 24 12.5 24Z" fill="white"/>
</svg>
